<svg width="16" height="16" viewBox="0 0 16 16" fill="none" xmlns="http://www.w3.org/2000/svg">
<path fill-rule="evenodd" clip-rule="evenodd" d="M3.5 2.98633C2.67157 2.98633 2 3.6579 2 4.48633V13.4863C2 14.3148 2.67157 14.9863 3.5 14.9863H12.5C13.3284 14.9863 14 14.3148 14 13.4863V4.48633C14 3.6579 13.3284 2.98633 12.5 2.98633H3.5ZM6.32018 6.45764C6.39468 6.45745 6.46792 6.47682 6.53258 6.51382L10.2127 8.61693C10.2778 8.65413 10.3319 8.7079 10.3696 8.77278C10.4072 8.83766 10.4271 8.91134 10.4271 8.98635C10.4271 9.06137 10.4072 9.13505 10.3696 9.19993C10.3319 9.26481 10.2778 9.31857 10.2127 9.35578L6.53258 11.4589C6.46787 11.4959 6.39456 11.5153 6.32001 11.5151C6.24545 11.5148 6.17226 11.495 6.10777 11.4576C6.04329 11.4202 5.98976 11.3665 5.95256 11.3019C5.91537 11.2373 5.8958 11.164 5.89583 11.0895V6.88254C5.89593 6.80805 5.91558 6.73488 5.95283 6.67036C5.99008 6.60585 6.04361 6.55224 6.10808 6.51491C6.17255 6.47758 6.24569 6.45783 6.32018 6.45764Z" fill="#AFAFAF"/>
</svg>
