<svg width="16" height="16" viewBox="0 0 16 16" fill="none" xmlns="http://www.w3.org/2000/svg">
<path d="M8.19987 1.42969C11.8819 1.42969 14.8665 4.41435 14.8665 8.09635C14.8665 11.7784 11.8819 14.763 8.19987 14.763C4.51787 14.763 1.5332 11.7784 1.5332 8.09635C1.5332 4.41435 4.51787 1.42969 8.19987 1.42969ZM8.19987 4.09635C8.02306 4.09635 7.85349 4.16659 7.72847 4.29162C7.60344 4.41664 7.5332 4.58621 7.5332 4.76302V8.09635C7.53324 8.27315 7.6035 8.44269 7.72854 8.56769L9.72854 10.5677C9.85427 10.6891 10.0227 10.7563 10.1975 10.7548C10.3723 10.7533 10.5395 10.6832 10.6631 10.5596C10.7867 10.436 10.8568 10.2688 10.8583 10.094C10.8598 9.91916 10.7926 9.75076 10.6712 9.62502L8.86654 7.82035V4.76302C8.86654 4.58621 8.7963 4.41664 8.67127 4.29162C8.54625 4.16659 8.37668 4.09635 8.19987 4.09635Z" fill="#AFAFAF"/>
</svg>
