<svg width="87" height="42" viewBox="0 0 87 42" fill="none" xmlns="http://www.w3.org/2000/svg">
<g clip-path="url(#clip0_48_472)">
<path d="M1.81895 37.5404H1.78291L1.70852 38.0613H1.02734V30.6602H1.87474V32.6871L1.84684 33.599C2.30367 33.1987 2.87209 32.882 3.43121 32.882C4.74589 32.882 5.45264 33.9053 5.45264 35.4484C5.45264 37.1876 4.41926 38.182 3.25452 38.182C2.7884 38.182 2.25834 37.9406 1.81895 37.5404ZM4.56688 35.467C4.56688 34.3509 4.19491 33.599 3.23592 33.599C2.80699 33.599 2.36063 33.8404 1.87474 34.2963V36.9452C2.32227 37.3362 2.77793 37.4754 3.11387 37.4754C3.95313 37.4754 4.56688 36.7224 4.56688 35.4659V35.467Z" fill="white"/>
<path d="M6.22904 40.1349L6.39643 39.4562C6.49872 39.4945 6.64867 39.5397 6.7777 39.5397C7.35542 39.5397 7.71925 39.0744 7.92384 38.4514L8.03659 38.0708L6.00586 33.0122H6.89162L7.925 35.8211C8.07495 36.2586 8.25164 36.7783 8.41089 37.2343H8.45738C8.59571 36.7795 8.74682 36.2667 8.88515 35.8211L9.78834 33.0122H10.6171L8.70846 38.4804C8.36323 39.4747 7.83317 40.2382 6.82768 40.2382C6.58474 40.2382 6.38945 40.1999 6.23137 40.1361L6.22904 40.1349Z" fill="white"/>
<path d="M13.75 31.2373H15.7075C17.2349 31.2373 18.259 31.7583 18.259 33.2457C18.259 34.7331 17.243 35.3573 15.7435 35.3573H14.6172V38.063H13.75V31.2385V31.2373ZM15.6308 34.6588C16.8327 34.6588 17.4011 34.2203 17.4011 33.2445C17.4011 32.2688 16.7967 31.9427 15.5947 31.9427H14.6172V34.6588H15.6319H15.6308Z" fill="white"/>
<path d="M19.5566 33.0123H20.2552L20.3296 33.9335H20.3575C20.7109 33.2907 21.2247 32.8823 21.7931 32.8823C22.0163 32.8823 22.1744 32.9102 22.3336 32.9949L22.1756 33.7386C22.007 33.6736 21.8861 33.655 21.6815 33.655C21.2619 33.655 20.74 33.9532 20.4052 34.8176V38.0628H19.5578V33.0134L19.5566 33.0123Z" fill="white"/>
<path d="M22.6836 35.5416C22.6836 33.8581 23.7914 32.8823 25.0305 32.8823C26.2696 32.8823 27.3786 33.8581 27.3786 35.5416C27.3786 37.2251 26.2685 38.1823 25.0305 38.1823C23.7925 38.1823 22.6836 37.2158 22.6836 35.5416ZM26.5021 35.5416C26.5021 34.379 25.9058 33.5901 25.0305 33.5901C24.1552 33.5901 23.5682 34.3802 23.5682 35.5416C23.5682 36.703 24.154 37.4769 25.0305 37.4769C25.907 37.4769 26.5021 36.7041 26.5021 35.5416Z" fill="white"/>
<path d="M28.8467 33.7014H28.1562V33.0586L28.8467 33.0122V32.2024C28.8467 31.1802 29.3128 30.5386 30.3183 30.5386C30.6252 30.5386 30.9332 30.6035 31.1657 30.7056L30.9786 31.3473C30.7914 31.2649 30.5868 31.2185 30.4102 31.2185C29.9266 31.2185 29.693 31.5619 29.693 32.2128V33.0122H30.7647V33.7014H29.693V38.0616H28.8456V33.7014H28.8467Z" fill="white"/>
<path d="M31.2461 35.5416C31.2461 33.9057 32.3539 32.8823 33.5291 32.8823C34.8135 32.8823 35.5412 33.8117 35.5412 35.2538C35.5412 35.4383 35.5226 35.617 35.5028 35.7365H32.0935C32.1493 36.8144 32.8107 37.5035 33.7697 37.5035C34.2637 37.5035 34.6647 37.3539 35.0367 37.1033L35.3459 37.6602C34.8984 37.9491 34.3579 38.1811 33.6686 38.1811C32.3271 38.1811 31.2473 37.2054 31.2473 35.5404L31.2461 35.5416ZM34.7949 35.1239C34.7949 34.1099 34.3288 33.5611 33.536 33.5611C32.8188 33.5611 32.1853 34.1377 32.083 35.1239H34.7949Z" fill="white"/>
<path d="M36.2168 37.485L36.6364 36.9281C37.0747 37.2808 37.5303 37.5233 38.1359 37.5233C38.8066 37.5233 39.1321 37.1706 39.1321 36.732C39.1321 36.2122 38.5358 35.9883 37.9778 35.7748C37.2699 35.5149 36.4969 35.1715 36.4969 34.3152C36.4969 33.5158 37.1491 32.8823 38.2487 32.8823C38.8717 32.8823 39.4216 33.1422 39.8133 33.4497L39.4041 33.9985C39.0589 33.7386 38.7055 33.5518 38.258 33.5518C37.6152 33.5518 37.3164 33.8859 37.3164 34.2769C37.3164 34.7619 37.8384 34.9383 38.4068 35.1506C39.1437 35.4302 39.9539 35.7272 39.9539 36.6856C39.9539 37.5047 39.3018 38.1823 38.1092 38.1823C37.392 38.1823 36.7027 37.8853 36.218 37.485H36.2168Z" fill="white"/>
<path d="M40.5703 37.485L40.9899 36.9281C41.4282 37.2808 41.8838 37.5233 42.4894 37.5233C43.1602 37.5233 43.4856 37.1706 43.4856 36.732C43.4856 36.2122 42.8893 35.9883 42.3314 35.7748C41.6235 35.5149 40.8505 35.1715 40.8505 34.3152C40.8505 33.5158 41.5026 32.8823 42.6022 32.8823C43.2253 32.8823 43.7751 33.1422 44.1668 33.4497L43.7576 33.9985C43.4124 33.7386 43.059 33.5518 42.6115 33.5518C41.9687 33.5518 41.67 33.8859 41.67 34.2769C41.67 34.7619 42.1919 34.9383 42.7603 35.1506C43.4973 35.4302 44.3075 35.7272 44.3075 36.6856C44.3075 37.5047 43.6553 38.1823 42.4627 38.1823C41.7455 38.1823 41.0562 37.8853 40.5715 37.485H40.5703Z" fill="white"/>
<path d="M45.1133 35.5416C45.1133 33.8581 46.2211 32.8823 47.4602 32.8823C48.6993 32.8823 49.8083 33.8581 49.8083 35.5416C49.8083 37.2251 48.6982 38.1823 47.4602 38.1823C46.2222 38.1823 45.1133 37.2158 45.1133 35.5416ZM48.9318 35.5416C48.9318 34.379 48.3355 33.5901 47.4602 33.5901C46.5849 33.5901 45.9979 34.3802 45.9979 35.5416C45.9979 36.703 46.5837 37.4769 47.4602 37.4769C48.3366 37.4769 48.9318 36.7041 48.9318 35.5416Z" fill="white"/>
<path d="M51.1348 33.0123H51.8334L51.9078 33.9335H51.9357C52.289 33.2907 52.8028 32.8823 53.3712 32.8823C53.5944 32.8823 53.7525 32.9102 53.9118 32.9949L53.7537 33.7386C53.5851 33.6736 53.4642 33.655 53.2597 33.655C52.84 33.655 52.3181 33.9532 51.9833 34.8176V38.0628H51.1359V33.0134L51.1348 33.0123Z" fill="white"/>
<path d="M56.298 37.1032L56.9141 36.6657C57.221 37.2053 57.6034 37.428 58.0963 37.428C58.8333 37.428 59.1959 37.0103 59.1959 35.9789V31.2358H60.0526V36.0613C60.0526 37.2331 59.5109 38.181 58.18 38.181C57.3128 38.181 56.6991 37.8097 56.2969 37.1032H56.298Z" fill="white"/>
<path d="M61.4375 35.5416C61.4375 33.8581 62.5453 32.8823 63.7844 32.8823C65.0235 32.8823 66.1325 33.8581 66.1325 35.5416C66.1325 37.2251 65.0224 38.1823 63.7844 38.1823C62.5464 38.1823 61.4375 37.2158 61.4375 35.5416ZM65.256 35.5416C65.256 34.379 64.6597 33.5901 63.7844 33.5901C62.9091 33.5901 62.3221 34.3802 62.3221 35.5416C62.3221 36.703 62.9079 37.4769 63.7844 37.4769C64.6609 37.4769 65.256 36.7041 65.256 35.5416Z" fill="white"/>
<path d="M27.3097 8.64809C26.6819 7.95937 25.9378 7.43738 25.0764 7.08071C24.2146 6.72498 23.2688 6.54688 22.2386 6.54688C20.784 6.54688 19.5198 6.89124 18.4463 7.57948C17.3729 8.26821 16.5419 9.2274 15.953 10.4571C15.3641 11.6867 15.0703 13.1234 15.0703 14.7656C15.0703 16.4078 15.3622 17.9283 15.9468 19.1532C16.5315 20.3782 17.3734 21.3208 18.4729 21.9806C19.572 22.6414 20.8842 22.9706 22.4075 22.9706C23.6717 22.9706 24.7798 22.7593 25.7318 22.3368C26.6843 21.9138 27.4549 21.3184 28.0439 20.5492C28.6328 19.7799 29.0129 18.8728 29.1866 17.8284L24.9531 17.7005C24.8311 18.042 24.6541 18.3343 24.4201 18.5758C24.1862 18.8183 23.9052 19.0007 23.5763 19.1248C23.247 19.248 22.8835 19.31 22.4853 19.31C21.9144 19.31 21.41 19.1651 20.9724 18.8752C20.5354 18.5858 20.1975 18.1699 19.9592 17.629C19.7466 17.1453 19.6342 16.5769 19.6114 15.9337H29.2773V14.6803C29.2773 13.3597 29.1064 12.1964 28.7643 11.1903C28.4221 10.1837 27.9376 9.33587 27.3097 8.64762V8.64809ZM20.8229 10.6205C21.2211 10.3353 21.7108 10.1932 22.2903 10.1932C22.8697 10.1932 23.3552 10.3353 23.7448 10.6205C24.1344 10.9056 24.4287 11.3073 24.6285 11.8241C24.7599 12.1675 24.832 12.5758 24.8766 13.0135H19.6503C19.6949 12.5734 19.7704 12.1613 19.9142 11.8099C20.1215 11.3021 20.4248 10.9052 20.8234 10.6205H20.8229Z" fill="white"/>
<path d="M42.5558 8.64809C41.928 7.95937 41.1839 7.43738 40.3225 7.08071C39.4607 6.72498 38.5149 6.54688 37.4847 6.54688C36.0301 6.54688 34.7659 6.89124 33.6924 7.57948C32.619 8.26821 31.788 9.2274 31.1991 10.4571C30.6102 11.6867 30.3164 13.1234 30.3164 14.7656C30.3164 16.4078 30.6083 17.9283 31.1929 19.1532C31.7776 20.3782 32.6195 21.3208 33.719 21.9806C34.8181 22.6414 36.1303 22.9706 37.6536 22.9706C38.9178 22.9706 40.0259 22.7593 40.9779 22.3368C41.9303 21.9138 42.701 21.3184 43.29 20.5492C43.8789 19.7799 44.259 18.8728 44.4327 17.8284L40.1991 17.7005C40.0772 18.042 39.9002 18.3343 39.6662 18.5758C39.4323 18.8183 39.1513 19.0007 38.8224 19.1248C38.4931 19.248 38.1296 19.31 37.7314 19.31C37.1605 19.31 36.6561 19.1651 36.2185 18.8752C35.7815 18.5858 35.4436 18.1699 35.2053 17.629C34.9927 17.1453 34.8803 16.5769 34.8575 15.9337H44.5233V14.6803C44.5233 13.3597 44.3525 12.1964 44.0103 11.1903C43.6682 10.1837 43.1837 9.33587 42.5558 8.64762V8.64809ZM36.069 10.6205C36.4672 10.3353 36.9569 10.1932 37.5364 10.1932C38.1158 10.1932 38.6013 10.3353 38.9909 10.6205C39.3805 10.9056 39.6748 11.3073 39.8745 11.8241C40.006 12.1675 40.0781 12.5758 40.1227 13.0135H34.8964C34.941 12.5734 35.0165 12.1613 35.1603 11.8099C35.3676 11.3021 35.6709 10.9052 36.0695 10.6205H36.069Z" fill="white"/>
<path d="M55.5235 9.48076H55.432C55.2507 8.99619 54.9821 8.52868 54.6271 8.07774C54.2721 7.62633 53.8241 7.25876 53.2831 6.97361C52.7417 6.68846 52.0906 6.54635 51.3289 6.54635C50.3157 6.54635 49.3718 6.83861 48.4977 7.42265C47.6235 8.00622 46.9155 8.90146 46.374 10.1074C45.8325 11.3139 45.5625 12.8524 45.5625 14.7229C45.5625 16.5935 45.8216 18.0367 46.3413 19.2527C46.8604 20.4686 47.5599 21.3799 48.4383 21.9877C49.3168 22.5959 50.2891 22.8995 51.354 22.8995C52.0901 22.8995 52.7265 22.7664 53.2637 22.5006C53.7999 22.2354 54.2455 21.8882 54.6005 21.4609C54.9555 21.0337 55.2326 20.5733 55.4315 20.0792H55.5871V22.6721H60.1458V1.44678H55.5226V9.48076H55.5235ZM55.3152 16.952C55.0993 17.5834 54.7918 18.0751 54.3936 18.4266C53.9955 18.778 53.5152 18.9533 52.9524 18.9533C52.3895 18.9533 51.9107 18.778 51.5168 18.4266C51.1229 18.0751 50.8225 17.5815 50.6142 16.9449C50.4068 16.3092 50.3034 15.5679 50.3034 14.7229C50.3034 13.8779 50.4049 13.1252 50.608 12.4938C50.8116 11.8624 51.1125 11.3707 51.5107 11.0193C51.9088 10.6683 52.3891 10.4925 52.9524 10.4925C53.5157 10.4925 53.9974 10.6635 54.3998 11.005C54.8022 11.3475 55.1097 11.834 55.3223 12.4654C55.534 13.0968 55.6403 13.8495 55.6403 14.7229C55.6403 15.5964 55.5321 16.3206 55.3152 16.952Z" fill="white"/>
<path d="M74.0236 8.64809C73.3957 7.95937 72.6511 7.43738 71.7893 7.08071C70.9275 6.72498 69.9827 6.54688 68.9524 6.54688C67.4979 6.54688 66.2336 6.89124 65.1602 7.57948C64.0863 8.26821 63.2548 9.2274 62.6659 10.4571C62.077 11.6867 61.7832 13.1234 61.7832 14.7656C61.7832 16.4078 62.0751 17.9283 62.6597 19.1532C63.2444 20.3782 64.0863 21.3208 65.1858 21.9806C66.2854 22.6414 67.5971 22.9706 69.1209 22.9706C70.3851 22.9706 71.4932 22.7593 72.4452 22.3368C73.3976 21.9138 74.1678 21.3184 74.7563 20.5492C75.3452 19.7799 75.7263 18.8728 75.899 17.8284L71.6655 17.7005C71.5445 18.042 71.367 18.3343 71.1335 18.5758C70.8995 18.8183 70.6186 19.0007 70.2888 19.1248C69.9599 19.248 69.5964 19.31 69.1982 19.31C68.6264 19.31 68.1219 19.1651 67.6848 18.8752C67.2478 18.5858 66.9104 18.1699 66.6721 17.629C66.4595 17.1453 66.3471 16.5769 66.3243 15.9337H75.9901V14.6803C75.9901 13.3597 75.8188 12.1964 75.4771 11.1903C75.135 10.1837 74.6505 9.33587 74.0226 8.64762L74.0236 8.64809ZM67.5368 10.6205C67.9349 10.3353 68.4237 10.1932 69.0041 10.1932C69.5845 10.1932 70.069 10.3353 70.4587 10.6205C70.8483 10.9056 71.1425 11.3073 71.3413 11.8241C71.4733 12.1675 71.5454 12.5758 71.59 13.0135H66.3637C66.4078 12.5734 66.4833 12.1613 66.6275 11.8099C66.8349 11.3021 67.1382 10.9052 67.5368 10.6205Z" fill="white"/>
<path d="M86.2578 6.58902C86.0281 6.5606 85.8051 6.54639 85.5891 6.54639C84.8014 6.54639 84.1061 6.80028 83.5044 7.30805C82.9027 7.81678 82.4722 8.60213 82.2122 9.666H82.0565V6.7458H77.5762V22.6707H82.1994V14.0243C82.1994 13.3976 82.3227 12.8467 82.569 12.3721C82.8163 11.897 83.158 11.5271 83.595 11.2609C84.0321 10.9951 84.5238 10.862 85.0695 10.862C85.3457 10.862 85.6617 10.8833 86.0177 10.9255C86.3722 10.9686 86.6626 11.0321 86.8875 11.1178V6.73112C86.6968 6.6648 86.4865 6.61744 86.2578 6.58807V6.58902Z" fill="white"/>
<path d="M16.5083 0.550781H0.886719V6.27419H16.5083V0.550781Z" fill="#0062FF"/>
<path d="M12.8224 8.89893H0.886719V14.6223H12.8224V8.89893Z" fill="#3386FF"/>
<path d="M6.80497 17.2476H0.886719V22.971H6.80497V17.2476Z" fill="#73ACFF"/>
</g>
<defs>
<clipPath id="clip0_48_472">
<rect width="86" height="41" fill="white" transform="translate(0.886719 0.550781)"/>
</clipPath>
</defs>
</svg>
